.
..............................Site Info...........................

 -   http://www.scenetime.com  *_*   

SceneTime is going to Close sign up on march/1, hurry up! get in before the doors are closed.

     We care to share . Join us on  http://www.scenetime.com 

    Be the first to get new release at  http://www.scenetime.com

        Seed back for speed


...................................NFO:.................................................[pre][IMG]http://i.imgur.com/frqxr.jpg[/IMG]

*******************************************************************************
             Underworld.Awakening.2012.R5.FULL.LiNE.XviD-PRESTiGE
*******************************************************************************


[color=red]General Information:[/color]

Complete name                            : Underworld.Awakening.2012.R5.FULL.LiNE.XviD-PRESTiGE
Format                                   : AVI
Format/Info                              : Audio Video Interleave
File size                                : 1.40 GiB
Duration                                 : 1h 25mn
Overall bit rate                         : 2 346 Kbps
Language                                 : English
Subs                                     : N/A
Source                                   : V = DVD5-R5 Lum1x / A = SiC Many THANKS
Encoder                                  : akosipalos

[color=lime]iMDB:[/color] http://www.imdb.com/title/tt1496025/

[color=red]Video[/color]

ID                                       : 0
Format                                   : MPEG-4 Visual
Format profile                           : Advanced Simple@L5
Format settings, BVOP                    : 2
Format settings, QPel                    : No
Format settings, GMC                     : No warppoints
Format settings, Matrix                  : Default (H.263)
Codec ID                                 : XVID
Codec ID/Hint                            : XviD
Duration                                 : 1h 25mn
Bit rate                                 : 2 211 Kbps
Width                                    : 720 pixels
Height                                   : 288 pixels
Display aspect ratio                     : 2.500
Frame rate                               : 25.000 fps
Color space                              : YUV
Chroma subsampling                       : 4:2:0
Bit depth                                : 8 bits
Scan type                                : Progressive
Compression mode                         : Lossy
Bits/(Pixel*Frame)                       : 0.427
Stream size                              : 1.32 GiB (94%)
Writing library                          : XviD 1.2.1 (UTC 2008-12-04)

[color=red]Audio[/color]

ID                                       : 1
Format                                   : MPEG Audio
Format version                           : Version 1
Format profile                           : Layer 3
Mode                                     : Joint stereo
Mode extension                           : MS Stereo
Codec ID                                 : 55
Codec ID/Hint                            : MP3
Duration                                 : 1h 25mn
Bit rate mode                            : Constant
Bit rate                                 : 128 Kbps
Channel(s)                               : 2 channels
Sampling rate                            : 44.1 KHz
Compression mode                         : Lossy
Stream size                              : 78.0 MiB (5%)
Alignment                                : Aligned on interleaves
Interleave, duration                     : 160 ms (4.00 video frames)
Interleave, preload duration             : 208 ms


[color=red]Plot:[/color]

When human forces discover the existence of the Vampire and Lycan clans, a war to eradicate 
both species commences. The vampire warrioress Selene leads the battle against humankind. 


[color=red]Screens:[/color]

[IMG]http://i.imgur.com/To5DM.png[/IMG]
[IMG]http://i.imgur.com/pkJES.png[/IMG]
[IMG]http://i.imgur.com/Hg7uX.png[/IMG]
[IMG]http://i.imgur.com/XGzHC.png[/IMG]


[b][color=red]Release Notes:[/color][/b]

WE DONT RELEASE EVERYTHiNG TO OTHERS SiTES YOU WANT MORE OF OUR STUFF COME FiND US AT .......

WE ARE LOOKING FOR SUPPLiERS BLURAY, CAM, R5, PRE RETAiL DVD GOT SOMETHiNG WE MiGHT LiKE WHEN YOU FiND US TELL US.......


[center][b][color=red]GREETZ:[/color][/b]

Twisted | Bigguy | CTFX | Whitestag13 | THoRN | SANTi | PA4U2C | Jungledave | mtyy
| marsby | cld | Stortrapp | rizal | mannilim | Rock | Ulap | centserick2 | Galactica |
musikera | Tukmol | rock3r | canislupus | sickie | fun2knytz | lilyrose | Dreamer
 RiZAL Team Release | TRiNiTY | LEGi0N | LEGiTiMATE | HiVE-CM8 | BHRG | DTRG 
  CrEwSaDe | Rx | LKRG | THC | aTLas | SiC

[img]http://i824.photobucket.com/albums/zz161/akosipalos/PRESTiGE-3.png[/img]

[b][color=red]PRESTiGE[/color] is the level of respect at which one is regarded by others....RIzE Above Or Sink Below...[/b]
[/center][/pre]